<?xml version="1.0" standalone="no"?>
<svg version="1.0" xmlns="http://www.w3.org/2000/svg" width="1024" height="1024" viewBox="150 150 724 724" preserveAspectRatio="xMidYMid meet">
  <g transform="translate(0,1024) scale(0.1,-0.1)"
  fill="#000000" stroke="none">
    <path d="M4971 6347 c-498 -41 -991 -396 -1211 -871 -105 -228 -147 -471 -126 -728 l8 -85 36 -12 c254 -79 450 -150 649 -237 378 -166 628 -219 902 -193 214 20 337 56 671 197 259 109 404 162 569 208 68 19 126 36 129 38 12 12 19 224 11 323 -28 354 -171 656 -434 918 -138 139 -259 225 -435 309 -239 114 -484 157 -769 133z"/>
    <path d="M2570 4410 c-173 -14 -432 -64 -515 -100 -175 -76 -128 -291 71 -324 28 -5 68 -1 125 13 167 40 206 47 359 60 91 8 342 -3 427 -18 35 -6 73 -13 85 -15 59 -10 198 -50 285 -82 136 -49 290 -126 488 -244 456 -273 691 -372 984 -415 112 -16 331 -22 401 -11 19 3 56 8 83 11 75 9 263 59 372 100 144 54 341 154 565 289 486 291 776 385 1192 386 192 1 265 -8 497 -60 100 -22 141 -20 202 11 61 31 106 100 102 157 0 6 -1 21 -2 32 -1 25 -55 87 -92 106 -85 44 -475 110 -664 113 -108 2 -331 -17 -456 -39 -314 -54 -545 -149 -929 -381 -417 -252 -610 -331 -898 -370 -109 -14 -261 -8 -377 16 -223 46 -425 137 -785 355 -113 68 -262 152 -332 187 -209 105 -482 186 -712 212 -134 16 -358 21 -476 11z"/>
  </g>
</svg>
